<svg xmlns="http://www.w3.org/2000/svg" viewBox="0 0 895.91 629.63"><defs><style>.cls-1{fill:#017bfe;}.cls-2{fill:#fff;}</style></defs><title>finbo-logo</title><g id="Layer_2" data-name="Layer 2"><g id="Layer_1-2" data-name="Layer 1"><path class="cls-1" d="M881.47,106.07c-4.69-28.76-12.56-50.72-23.4-65.28-10.61-14.25-38.81-52.07-327.93-16.3L529,15.21c294.51-36.43,322.91,1.68,336.56,20,11.75,15.77,20.2,39.11,25.13,69.35Z"/><path class="cls-1" d="M890.83,267.91l-9.28-1a849.72,849.72,0,0,0,5-90.15l9.35,0A855.43,855.43,0,0,1,890.83,267.91Z"/><path class="cls-1" d="M839.33,54.75c-47.27-63.47-591.4,27.93-689.22,69.62C17.72,180.81-.12,542.85,0,629.63c0,0,70.07-94.59,138.52-124.73,35.32,7.65,416.41,26.7,488.25,36.66,81.94,11.36,163.66-20.51,193.89-94.27S888.7,121,839.33,54.75Z"/><path class="cls-2" d="M195.86,321.83l41.06.34-.42,50.07-41.06-.33L195,427.74l-61.84-.51,1.46-177.77,106.66.88-.41,50.83L196,300.8Z"/><path class="cls-2" d="M299.58,292.71c-21.8.51-32.28-12.87-32.66-29-.39-16.84,11.18-30.5,31-31,21.06-.49,32.28,13.12,32.66,29.23C331,279.08,319.15,292.25,299.58,292.71Zm-28.21,12.56L329,299l3,128.32-57.72,1.36Z"/><path class="cls-2" d="M361.62,279.58l59.68-6.64,3,22.77c12.2-18.58,30.26-24.3,46.44-24.77,33.53-1,47,23.52,47.95,57.63l2.67,93.07L454,423.58l-2.4-83.24c-.28-9.83-3.23-11.77-7-11.66-3.18.09-6.91,1.06-14,4.45l2.62,91.05-67.35,1.94Z"/><path class="cls-2" d="M619.88,427.67c-12.48,1.58-46,3.22-70.82-1.72.15-14.71-.1-19-1.39-29.22l-23-181.83,65.38-14,8.1,64.11c1,8.23,2.22,17.59,3,28.44,10.51-14.87,20.47-20.45,34.65-22.25,31.2-3.94,57.23,19.58,62.85,64.11C704.54,381.53,684.27,419.54,619.88,427.67Zm-3.25-101a21.67,21.67,0,0,0-10.14,4.16l4.87,38.58a66.79,66.79,0,0,1,.65,7.41,36.42,36.42,0,0,0,9.86.48c7.94-1,12.65-9.37,10.79-24.12C630.08,332.72,624.29,325.67,616.63,326.64Z"/><path class="cls-2" d="M747,294c-48.29-1.35-78.94-33.54-77.53-84,1.39-49.83,34.4-78.25,84-76.87,47.39,1.33,77.45,31.29,76.14,78C828.25,261.63,795.76,295.36,747,294ZM749,177.78c-16.09-.45-23.3,12.8-23.84,32-.57,20.29,7.5,39.49,24.26,40l1.1,0c16.09.45,23-17.89,23.55-37.52C774.6,192,766.38,178.26,749,177.78Z"/></g></g></svg>